<svg width="668" height="251" viewBox="0 0 668 251" fill="none" xmlns="http://www.w3.org/2000/svg" id='hero-text'>
<path d="M588.622 117.521L588.619 117.524C580.569 125.693 576.575 137.15 576.575 151.825C576.575 166.491 580.448 177.442 588.289 184.57C596.097 191.668 606.199 195.2 618.55 195.2C631.036 195.2 641.318 191.131 649.355 182.978C657.522 174.809 661.575 163.351 661.575 148.675C661.575 134.009 657.702 123.058 649.862 115.93C642.053 108.831 631.891 105.3 619.425 105.3C607.054 105.3 596.773 109.37 588.622 117.521ZM598.126 119.399L598.128 119.396C603.879 111.575 611.087 107.7 619.775 107.7C628.494 107.7 635.465 111.017 640.733 117.661C645.998 124.298 648.675 134.605 648.675 148.675C648.675 162.611 645.771 173.46 640.023 181.278C634.274 188.981 627.066 192.8 618.375 192.8C609.656 192.8 602.686 189.483 597.417 182.839C592.152 176.201 589.475 165.952 589.475 152C589.475 137.945 592.38 127.098 598.126 119.399Z" stroke="#D9D9D9"/>
<path d="M546.126 62.425H545.626V62.925V110.247C538.81 106.954 532.034 105.3 525.301 105.3C510.508 105.3 499.326 109.471 491.852 117.893C484.395 126.297 480.701 138.156 480.701 153.4C480.701 166.823 483.69 177.053 489.749 184.004C495.818 190.965 504.895 194.556 516.889 194.85L516.889 194.85H516.901C523.978 194.85 530.139 193.257 535.363 190.051C539.888 187.274 543.318 184.122 545.626 180.587V181.575V181.59L545.627 181.604L545.802 184.578C545.802 184.578 545.802 184.579 545.802 184.579C545.93 186.873 547.327 189.088 549.826 191.23L549.826 191.23L549.835 191.237C552.523 193.436 556.327 194.5 561.176 194.5H571.851H572.351V194V192.6V192.1H571.851H566.471L564.591 191.758L564.567 191.754L564.543 191.752C563.346 191.652 562.063 190.847 560.703 189.152C559.505 187.401 558.876 184.895 558.876 181.575V62.925V62.425H558.376H546.126ZM501.745 119.723L501.747 119.72C506.897 111.708 514.549 107.7 524.776 107.7C530.56 107.7 537.505 109.438 545.626 112.953V174.203C545.286 178.065 542.454 182.085 536.901 186.25C531.398 190.378 524.798 192.45 517.076 192.45C509.372 192.45 503.631 189.242 499.787 182.806C495.918 176.329 493.951 166.55 493.951 153.4C493.951 138.867 496.569 127.66 501.745 119.723Z" stroke="#D9D9D9"/>
<path d="M445.347 180.975V182.8C445.347 184.886 446.827 187.228 449.519 189.804C452.587 192.988 458.192 194.5 466.147 194.5H471.572H472.072V194V192.6V192.1H471.572H466.192L464.312 191.758L464.288 191.754L464.264 191.752C463.067 191.652 461.783 190.847 460.424 189.152C459.226 187.401 458.597 184.895 458.597 181.575V122.95C458.597 119.068 457.016 115.396 453.92 111.942C451.908 109.687 448.863 108.031 444.841 106.936C440.817 105.841 435.781 105.3 429.747 105.3C418.937 105.3 408.307 107.709 397.863 112.521L397.367 112.749L397.638 113.223L398.338 114.448L398.585 114.88L399.018 114.635C401.644 113.151 405.794 111.647 411.5 110.133L411.5 110.133L411.507 110.131C417.313 108.506 422.34 107.7 426.597 107.7C430.875 107.7 434.3 108.279 436.898 109.409L436.906 109.412L436.915 109.416C439.554 110.448 441.316 111.684 442.286 113.085C443.313 114.568 444.109 116.104 444.676 117.693L444.684 117.714L444.693 117.735C445.369 119.2 445.558 120.363 445.36 121.26C445.242 121.737 445.172 122.146 445.172 122.469C445.172 122.63 445.189 122.801 445.246 122.957C445.27 123.023 445.303 123.09 445.347 123.155V151.455C442.905 151.251 440.213 151.15 437.272 151.15C434.106 151.15 430.651 151.326 426.908 151.676C419.369 152.144 413.138 153.022 408.226 154.316C403.321 155.609 399.683 157.328 397.378 159.512C395.135 161.637 393.716 163.64 393.214 165.521C392.738 167.305 392.497 168.982 392.497 170.55C392.497 171.977 392.616 173.403 392.853 174.828C393.859 181.567 396.486 186.681 400.779 190.103C405.067 193.522 410.951 195.2 418.372 195.2C424.741 195.2 430.27 193.887 434.937 191.241C439.119 188.871 442.587 185.443 445.347 180.975ZM406.095 174.708L406.095 174.7C405.979 173.546 405.922 172.513 405.922 171.6C405.922 166.554 407.239 162.663 409.815 159.864C411.078 158.491 413.106 157.301 415.953 156.323C418.795 155.347 422.417 154.594 426.829 154.072C429.961 153.724 433.091 153.55 436.222 153.55C439.317 153.55 442.359 153.655 445.347 153.865V174.553C445.006 178.32 442.441 182.344 437.472 186.62C432.658 190.746 427.23 192.8 421.172 192.8C416.627 192.8 413.147 191.301 410.661 188.341C408.159 185.36 406.616 180.84 406.095 174.708Z" stroke="#D9D9D9"/>
<path d="M355.767 123.408L355.769 123.404C359.858 117.326 364.341 113.243 369.204 111.102V114.025C369.204 116.478 370.007 118.534 371.626 120.154C373.245 121.773 375.301 122.575 377.754 122.575C380.204 122.575 382.258 121.775 383.876 120.16C385.612 118.545 386.479 116.487 386.479 114.025C386.479 111.566 385.615 109.51 383.883 107.896C382.269 106.165 380.213 105.3 377.754 105.3H377.054H377.046L377.037 105.3C370.22 105.539 364.148 108.774 358.828 114.921C354.341 120.006 351.072 125.397 349.029 131.093V106.5V106H348.529H336.279H335.779V106.5V194V194.5H336.279H348.529H349.029V194V140.985C349.26 135.51 351.487 129.653 355.767 123.408Z" stroke="#D9D9D9"/>
<path d="M253.319 117.521L253.316 117.524C245.266 125.693 241.272 137.15 241.272 151.825C241.272 166.491 245.145 177.442 252.986 184.57C260.794 191.668 270.896 195.2 283.247 195.2C295.733 195.2 306.016 191.131 314.052 182.978C322.22 174.809 326.272 163.351 326.272 148.675C326.272 134.009 322.4 123.058 314.559 115.93C306.75 108.831 296.589 105.3 284.122 105.3C271.751 105.3 261.47 109.37 253.319 117.521ZM262.823 119.399L262.825 119.396C268.576 111.575 275.784 107.7 284.472 107.7C293.191 107.7 300.162 111.017 305.431 117.661C310.695 124.298 313.372 134.605 313.372 148.675C313.372 162.611 310.469 173.46 304.721 181.278C298.971 188.981 291.763 192.8 283.072 192.8C274.354 192.8 267.383 189.483 262.114 182.839C256.849 176.201 254.172 165.952 254.172 152C254.172 137.945 257.077 127.098 262.823 119.399Z" stroke="#D9D9D9"/>
<path d="M211.569 62.425H211.069V62.925V182.8C211.069 183.836 211.391 184.963 211.996 186.174C214.813 191.807 221.554 194.5 231.869 194.5H237.294H237.794V194V192.6V192.1H237.294H231.914L230.033 191.758L230.009 191.754L229.985 191.752C228.788 191.652 227.505 190.847 226.145 189.152C224.948 187.401 224.319 184.895 224.319 181.575V62.925V62.425H223.819H211.569Z" stroke="#D9D9D9"/>
<path d="M123.265 117.521L123.263 117.524C115.213 125.693 111.219 137.15 111.219 151.825C111.219 166.491 115.092 177.442 122.932 184.57C130.74 191.668 140.843 195.2 153.194 195.2C165.68 195.2 175.962 191.131 183.998 182.978C192.166 174.809 196.219 163.351 196.219 148.675C196.219 134.009 192.346 123.058 184.505 115.93C176.696 108.831 166.535 105.3 154.069 105.3C141.697 105.3 131.417 109.37 123.265 117.521ZM132.769 119.399L132.772 119.396C138.523 111.575 145.73 107.7 154.419 107.7C163.138 107.7 170.108 111.017 175.377 117.661C180.641 124.298 183.319 134.605 183.319 148.675C183.319 162.611 180.415 173.46 174.667 181.278C168.917 188.981 161.71 192.8 153.019 192.8C144.3 192.8 137.329 189.483 132.06 182.839C126.796 176.201 124.119 165.952 124.119 152C124.119 137.945 127.024 127.098 132.769 119.399Z" stroke="#D9D9D9"/>
<path d="M21.0964 176.472L21.0978 176.474C31.7227 188.987 48.044 195.2 69.9539 195.2C82.4768 195.2 93.2115 193.62 102.146 190.446L102.595 190.287L102.458 189.831L101.933 188.081L101.789 187.601L101.308 187.747L97.293 188.969C94.6347 189.662 90.6912 190.416 85.4521 191.231C80.2212 192.045 75.5225 192.45 71.3539 192.45C67.2834 192.45 63.8044 192.275 60.9135 191.929C58.0741 191.588 54.2227 190.33 49.3396 188.122C44.4988 185.816 40.3545 182.764 36.9017 178.967C33.5822 175.188 30.576 169.369 27.9029 161.466C25.2386 153.473 23.9039 144.777 23.9039 135.375C23.9039 125.949 24.6606 117.998 26.166 111.513L26.167 111.508C28.7197 100.021 33.117 91.374 39.3222 85.5135L39.3223 85.5135L39.3274 85.5086C47.5104 77.5561 57.7072 73.575 69.9539 73.575C79.465 73.575 88.1515 75.1407 96.0194 78.2647L96.5261 78.4659L96.6828 77.9437L97.2078 76.1937L97.3405 75.7514L96.9101 75.584L93.7601 74.359L93.7602 74.3589L93.7518 74.3558C91.4892 73.5222 88.1275 72.7583 83.6882 72.0571C79.226 71.2355 74.6477 70.825 69.9539 70.825C53.5292 70.825 39.4797 75.109 27.8322 83.6976L27.8321 83.6975L27.8252 83.7028C21.792 88.3164 17.0189 94.8691 13.4924 103.333L13.491 103.336C10.0793 111.689 8.37891 121.146 8.37891 131.7C8.37891 142.234 9.54901 151.213 11.9023 158.626C14.2493 166.019 17.3094 171.975 21.0964 176.472Z" stroke="#D9D9D9"/>
<path d="M470.905 37.375V37.125H495.68H495.957L496.104 36.89C496.413 36.3952 496.599 35.6815 496.701 34.8084L496.702 34.8052C496.804 33.8881 496.855 32.9946 496.855 32.125C496.855 27.9727 495.621 24.7002 493.095 22.3833C490.575 20.0218 487.037 18.875 482.555 18.875C479.647 18.875 477.027 19.3852 474.704 20.417C472.442 21.3944 470.531 22.7615 468.98 24.5192C467.436 26.2695 466.254 28.3007 465.434 30.6075L465.434 30.6075L465.432 30.6137C464.663 32.8684 464.28 35.2481 464.28 37.75C464.28 40.2031 464.663 42.5577 465.432 44.8113C466.201 47.0686 467.332 49.0745 468.824 50.8245L468.824 50.8245L468.829 50.8301C470.329 52.5362 472.186 53.9015 474.394 54.9284L474.394 54.9284L474.403 54.9323C476.627 55.9153 479.173 56.4 482.03 56.4C483.56 56.4 485.018 56.2474 486.403 55.9404C487.821 55.6867 489.118 55.3562 490.294 54.9472C491.458 54.5423 492.525 54.1106 493.494 53.6519L493.503 53.6474L493.513 53.6425C494.469 53.1392 495.279 52.6835 495.942 52.2758L496.242 52.0914L496.169 51.747L495.269 47.472L495.112 46.7236L494.489 47.1681C493.807 47.6553 493.024 48.1454 492.137 48.6379C491.256 49.1273 490.3 49.5936 489.267 50.0364C488.241 50.4269 487.165 50.7694 486.039 51.0636C484.927 51.3044 483.791 51.425 482.63 51.425C480.595 51.425 478.853 51.0379 477.387 50.2822C475.953 49.5169 474.761 48.4912 473.807 47.2024C472.845 45.9045 472.12 44.4097 471.636 42.7126C471.149 41.0092 470.905 39.2306 470.905 37.375ZM474.948 26.5635L474.948 26.5632C476.681 24.9247 479.119 24.075 482.33 24.075C483.48 24.075 484.579 24.2427 485.628 24.5765L485.638 24.5796L485.648 24.5824C486.69 24.8665 487.606 25.314 488.401 25.9222C489.188 26.5239 489.815 27.2885 490.283 28.2236L490.283 28.2237L490.287 28.2329C490.744 29.1001 490.98 30.1178 490.98 31.3V31.3015V31.3029V31.3044V31.3059V31.3073V31.3088V31.3102V31.3117V31.3132V31.3146V31.3161V31.3175V31.319V31.3205V31.3219V31.3234V31.3248V31.3263V31.3277V31.3292V31.3306V31.3321V31.3335V31.335V31.3364V31.3379V31.3393V31.3408V31.3422V31.3437V31.3451V31.3466V31.348V31.3495V31.3509V31.3524V31.3538V31.3553V31.3567V31.3581V31.3596V31.361V31.3625V31.3639V31.3653V31.3668V31.3682V31.3697V31.3711V31.3725V31.374V31.3754V31.3768V31.3783V31.3797V31.3811V31.3826V31.384V31.3854V31.3869V31.3883V31.3897V31.3912V31.3926V31.394V31.3954V31.3969V31.3983V31.3997V31.4011V31.4026V31.404V31.4054V31.4068V31.4083V31.4097V31.4111V31.4125V31.4139V31.4154V31.4168V31.4182V31.4196V31.421V31.4224V31.4239V31.4253V31.4267V31.4281V31.4295V31.4309V31.4323V31.4338V31.4352V31.4366V31.438V31.4394V31.4408V31.4422V31.4436V31.445V31.4464V31.4478V31.4493V31.4507V31.4521V31.4535V31.4549V31.4563V31.4577V31.4591V31.4605V31.4619V31.4633V31.4647V31.4661V31.4675V31.4689V31.4703V31.4717V31.4731V31.4745V31.4758V31.4772V31.4786V31.48V31.4814V31.4828V31.4842V31.4856V31.487V31.4884V31.4898V31.4912V31.4925V31.4939V31.4953V31.4967V31.4981V31.4995V31.5009V31.5022V31.5036V31.505V31.5064V31.5078V31.5092V31.5105V31.5119V31.5133V31.5147V31.516V31.5174V31.5188V31.5202V31.5216V31.5229V31.5243V31.5257V31.5271V31.5284V31.5298V31.5312V31.5325V31.5339V31.5353V31.5367V31.538V31.5394V31.5408V31.5421V31.5435V31.5449V31.5462V31.5476V31.549V31.5503V31.5517V31.553V31.5544V31.5558V31.5571V31.5585V31.5598V31.5612V31.5626V31.5639V31.5653V31.5666V31.568V31.5693V31.5707V31.5721V31.5734V31.5748V31.5761V31.5775V31.5788V31.5802V31.5815V31.5829V31.5842V31.5856V31.5869V31.5883V31.5896V31.591V31.5923V31.5937V31.595V31.5963V31.5977V31.599V31.6004V31.6017V31.6031V31.6044V31.6057V31.6071V31.6084V31.6098V31.6111V31.6124V31.6138V31.6151V31.6164V31.6178V31.6191V31.6204V31.6218V31.6231V31.6244V31.6258V31.6271V31.6284V31.6298V31.6311V31.6324V31.6338V31.6351V31.6364V31.6377V31.6391V31.6404V31.6417V31.643V31.6444V31.6457V31.647V31.6483V31.6497V31.651V31.6523V31.6536V31.6549V31.6563V31.6576V31.6589V31.6602V31.6615V31.6628V31.6642V31.6655V31.6668V31.6681V31.6694V31.6707V31.672V31.6733V31.6747V31.676V31.6773V31.6786V31.6799V31.6812V31.6825V31.6838V31.6851V31.6864V31.6877V31.689V31.6903V31.6916V31.6929V31.6942V31.6955V31.6968V31.6981V31.6994V31.7007V31.702V31.7033V31.7046V31.7059V31.7072V31.7085V31.7098V31.7111V31.7124V31.7137V31.715V31.7163V31.7176V31.7189V31.7202V31.7215V31.7227V31.724V31.7253V31.7266V31.7279V31.7292V31.7305V31.7318V31.733V31.7343V31.7356V31.7369V31.7382V31.7395V31.7407V31.742V31.7433V31.7446V31.7459V31.7471V31.7484V31.7497V31.751V31.7522V31.7535V31.7548V31.7561V31.7573V31.7586V31.7599V31.7612V31.7624V31.7637V31.765V31.7662V31.7675V31.7688V31.7701V31.7713V31.7726V31.7739V31.7751V31.7764V31.7776V31.7789V31.7802V31.7814V31.7827V31.784V31.7852V31.7865V31.7877V31.789V31.7903V31.7915V31.7928V31.794V31.7953V31.7966V31.7978V31.7991V31.8003V31.8016V31.8028V31.8041V31.8053V31.8066V31.8078V31.8091V31.8103V31.8116V31.8128V31.8141V31.8153V31.8166V31.8178V31.8191V31.8203V31.8216V31.8228V31.824V31.8253V31.8265V31.8278V31.829V31.8303V31.8315V31.8327V31.834V31.8352V31.8365V31.8377V31.8389V31.8402V31.8414V31.8426V31.8439V31.8451V31.8463V31.8476V31.8488V31.85V31.8513V31.8525V31.8537V31.855V31.8562V31.8574V31.8586V31.8599V31.8611V31.8623V31.8635V31.8648V31.866V31.8672V31.8684V31.8697V31.8709V31.8721V31.8733V31.8745V31.8758V31.877V31.8782V31.8794V31.8806V31.8819V31.8831V31.8843V31.8855V31.8867V31.8879V31.8891V31.8904V31.8916V31.8928V31.894V31.8952V31.8964V31.8976V31.8988V31.9V31.9012V31.9025V31.9037V31.9049V31.9061V31.9073V31.9085V31.9097V31.9109V31.9121V31.9133V31.9145V31.9157V31.9169V31.9181V31.9193V31.9205V31.9217V31.9229V31.9241V31.9253V31.9265V31.9277V31.9289V31.9301V31.9312V31.9324V31.9336V31.9348V31.936V31.9372V31.9384V31.9396V31.9408V31.942V31.9432V31.9443V31.9455V31.9467V31.9479V31.9491V31.9503V31.9514V31.9526V31.9538V31.955V31.9562V31.9574V31.9585V31.9597V31.9609V31.9621V31.9633V31.9644V31.9656V31.9668V31.968V31.9691V31.9703V31.9715V31.9727V31.9738V31.975C490.98 32.0296 490.978 32.0879 490.973 32.15H471.584C472.245 29.914 473.367 28.0564 474.948 26.5635Z" stroke="#D9D9D9"/>
<path d="M456.745 27.2021L457.324 27.6297L457.523 26.9384L458.798 22.5134L458.901 22.1557L458.588 21.9544C457.125 21.0141 455.217 20.2717 452.884 19.7137C450.545 19.1545 448.156 18.875 445.718 18.875C442.518 18.875 439.747 19.3823 437.419 20.4162C435.107 21.393 433.193 22.7606 431.69 24.5227C430.193 26.2266 429.086 28.2122 428.366 30.4734L428.366 30.4734L428.364 30.4803C427.699 32.6803 427.368 35.0043 427.368 37.45C427.368 39.9973 427.724 42.4226 428.44 44.7235L428.44 44.7236L428.444 44.7363C429.213 46.9902 430.316 48.9938 431.757 50.7429L431.762 50.749L431.767 50.7551C433.266 52.4612 435.124 53.8265 437.332 54.8534L437.336 54.8552C439.612 55.89 442.235 56.4 445.193 56.4C447.991 56.4 450.619 55.9929 453.074 55.1749C455.544 54.3681 457.513 53.5025 458.963 52.5706L459.254 52.3833L459.181 52.0447L458.131 47.1697L457.946 46.3106L457.302 46.9086C455.956 48.1584 454.238 49.2032 452.134 50.035L452.134 50.035L452.13 50.0365C450.082 50.8656 448.095 51.275 446.168 51.275C444.133 51.275 442.363 50.888 440.844 50.1292C439.358 49.3617 438.089 48.3323 437.034 47.0386C436.026 45.7423 435.254 44.2245 434.721 42.4789C434.186 40.7279 433.918 38.9023 433.918 37C433.918 35.2933 434.137 33.664 434.574 32.1104L434.574 32.1104L434.575 32.1066C435.008 30.5179 435.704 29.1304 436.658 27.9373C437.61 26.7473 438.801 25.7927 440.238 25.0737C441.704 24.3653 443.499 24 445.643 24C447.737 24 449.835 24.3409 451.938 25.0254L451.938 25.0255L451.948 25.0286C454.071 25.6704 455.66 26.3999 456.745 27.2021Z" stroke="#D9D9D9"/>
<path d="M412.973 55V55.5H413.473H418.723H419.223V55V31.525C419.223 29.2328 418.893 27.265 418.212 25.638C417.589 24.0308 416.725 22.7136 415.609 21.7042C414.5 20.7008 413.183 19.9906 411.666 19.5708C410.216 19.1057 408.667 18.875 407.023 18.875C403.6 18.875 400.699 19.6417 398.349 21.2068C396.508 22.3939 395.161 23.8089 394.337 25.4561L393.871 20.4537L393.829 20H393.373H389.248H388.748V20.5V55V55.5H389.248H394.498H394.998V55V32.9514C395.432 31.5777 396.027 30.377 396.778 29.3441L396.778 29.3442L396.784 29.3355C397.554 28.2285 398.439 27.3208 399.439 26.6069L399.445 26.6024L399.451 26.5977C400.459 25.8302 401.534 25.2571 402.679 24.8753C403.881 24.4909 405.079 24.3 406.273 24.3C408.261 24.3 409.856 24.911 411.102 26.1102C412.309 27.2724 412.973 29.2569 412.973 32.2V55Z" stroke="#D9D9D9"/>
<path d="M354.303 37.375V37.125H379.078H379.355L379.502 36.89C379.812 36.3952 379.997 35.6815 380.1 34.8084L380.1 34.8052C380.202 33.8881 380.253 32.9946 380.253 32.125C380.253 27.9727 379.019 24.7002 376.493 22.3833C373.973 20.0218 370.435 18.875 365.953 18.875C363.045 18.875 360.425 19.3852 358.103 20.417C355.84 21.3944 353.929 22.7615 352.378 24.5192C350.834 26.2695 349.652 28.3007 348.832 30.6075L348.832 30.6075L348.83 30.6137C348.061 32.8684 347.678 35.2481 347.678 37.75C347.678 40.2031 348.062 42.5577 348.83 44.8113C349.6 47.0686 350.73 49.0745 352.223 50.8245L352.223 50.8245L352.228 50.8301C353.727 52.5362 355.585 53.9015 357.792 54.9284L357.792 54.9284L357.801 54.9323C360.026 55.9153 362.572 56.4 365.428 56.4C366.958 56.4 368.416 56.2474 369.802 55.9404C371.219 55.6867 372.517 55.3562 373.693 54.9472C374.857 54.5423 375.924 54.1106 376.892 53.6519L376.902 53.6474L376.911 53.6425C377.867 53.1392 378.678 52.6835 379.34 52.2758L379.64 52.0914L379.568 51.747L378.668 47.472L378.51 46.7236L377.888 47.1681C377.206 47.6553 376.422 48.1454 375.535 48.6379C374.655 49.1273 373.698 49.5936 372.666 50.0364C371.64 50.4269 370.563 50.7694 369.437 51.0636C368.326 51.3044 367.19 51.425 366.028 51.425C363.993 51.425 362.251 51.0379 360.786 50.2822C359.352 49.5169 358.16 48.4912 357.205 47.2024C356.244 45.9045 355.519 44.4097 355.034 42.7126C354.547 41.0092 354.303 39.2306 354.303 37.375ZM358.347 26.5635L358.347 26.5632C360.079 24.9247 362.517 24.075 365.728 24.075C366.879 24.075 367.978 24.2427 369.027 24.5765L369.037 24.5796L369.047 24.5824C370.089 24.8665 371.004 25.314 371.8 25.9222C372.586 26.5239 373.214 27.2885 373.681 28.2236L373.681 28.2237L373.686 28.2329C374.142 29.1001 374.378 30.1178 374.378 31.3V31.3015V31.3029V31.3044V31.3059V31.3073V31.3088V31.3102V31.3117V31.3132V31.3146V31.3161V31.3175V31.319V31.3205V31.3219V31.3234V31.3248V31.3263V31.3277V31.3292V31.3306V31.3321V31.3335V31.335V31.3364V31.3379V31.3393V31.3408V31.3422V31.3437V31.3451V31.3466V31.348V31.3495V31.3509V31.3524V31.3538V31.3553V31.3567V31.3581V31.3596V31.361V31.3625V31.3639V31.3653V31.3668V31.3682V31.3697V31.3711V31.3725V31.374V31.3754V31.3768V31.3783V31.3797V31.3811V31.3826V31.384V31.3854V31.3869V31.3883V31.3897V31.3912V31.3926V31.394V31.3954V31.3969V31.3983V31.3997V31.4011V31.4026V31.404V31.4054V31.4068V31.4083V31.4097V31.4111V31.4125V31.4139V31.4154V31.4168V31.4182V31.4196V31.421V31.4224V31.4239V31.4253V31.4267V31.4281V31.4295V31.4309V31.4323V31.4338V31.4352V31.4366V31.438V31.4394V31.4408V31.4422V31.4436V31.445V31.4464V31.4478V31.4493V31.4507V31.4521V31.4535V31.4549V31.4563V31.4577V31.4591V31.4605V31.4619V31.4633V31.4647V31.4661V31.4675V31.4689V31.4703V31.4717V31.4731V31.4745V31.4758V31.4772V31.4786V31.48V31.4814V31.4828V31.4842V31.4856V31.487V31.4884V31.4898V31.4912V31.4925V31.4939V31.4953V31.4967V31.4981V31.4995V31.5009V31.5022V31.5036V31.505V31.5064V31.5078V31.5092V31.5105V31.5119V31.5133V31.5147V31.516V31.5174V31.5188V31.5202V31.5216V31.5229V31.5243V31.5257V31.5271V31.5284V31.5298V31.5312V31.5325V31.5339V31.5353V31.5367V31.538V31.5394V31.5408V31.5421V31.5435V31.5449V31.5462V31.5476V31.549V31.5503V31.5517V31.553V31.5544V31.5558V31.5571V31.5585V31.5598V31.5612V31.5626V31.5639V31.5653V31.5666V31.568V31.5693V31.5707V31.5721V31.5734V31.5748V31.5761V31.5775V31.5788V31.5802V31.5815V31.5829V31.5842V31.5856V31.5869V31.5883V31.5896V31.591V31.5923V31.5937V31.595V31.5963V31.5977V31.599V31.6004V31.6017V31.6031V31.6044V31.6057V31.6071V31.6084V31.6098V31.6111V31.6124V31.6138V31.6151V31.6164V31.6178V31.6191V31.6204V31.6218V31.6231V31.6244V31.6258V31.6271V31.6284V31.6298V31.6311V31.6324V31.6338V31.6351V31.6364V31.6377V31.6391V31.6404V31.6417V31.643V31.6444V31.6457V31.647V31.6483V31.6497V31.651V31.6523V31.6536V31.6549V31.6563V31.6576V31.6589V31.6602V31.6615V31.6628V31.6642V31.6655V31.6668V31.6681V31.6694V31.6707V31.672V31.6733V31.6747V31.676V31.6773V31.6786V31.6799V31.6812V31.6825V31.6838V31.6851V31.6864V31.6877V31.689V31.6903V31.6916V31.6929V31.6942V31.6955V31.6968V31.6981V31.6994V31.7007V31.702V31.7033V31.7046V31.7059V31.7072V31.7085V31.7098V31.7111V31.7124V31.7137V31.715V31.7163V31.7176V31.7189V31.7202V31.7215V31.7227V31.724V31.7253V31.7266V31.7279V31.7292V31.7305V31.7318V31.733V31.7343V31.7356V31.7369V31.7382V31.7395V31.7407V31.742V31.7433V31.7446V31.7459V31.7471V31.7484V31.7497V31.751V31.7522V31.7535V31.7548V31.7561V31.7573V31.7586V31.7599V31.7612V31.7624V31.7637V31.765V31.7662V31.7675V31.7688V31.7701V31.7713V31.7726V31.7739V31.7751V31.7764V31.7776V31.7789V31.7802V31.7814V31.7827V31.784V31.7852V31.7865V31.7877V31.789V31.7903V31.7915V31.7928V31.794V31.7953V31.7966V31.7978V31.7991V31.8003V31.8016V31.8028V31.8041V31.8053V31.8066V31.8078V31.8091V31.8103V31.8116V31.8128V31.8141V31.8153V31.8166V31.8178V31.8191V31.8203V31.8216V31.8228V31.824V31.8253V31.8265V31.8278V31.829V31.8303V31.8315V31.8327V31.834V31.8352V31.8365V31.8377V31.8389V31.8402V31.8414V31.8426V31.8439V31.8451V31.8463V31.8476V31.8488V31.85V31.8513V31.8525V31.8537V31.855V31.8562V31.8574V31.8586V31.8599V31.8611V31.8623V31.8635V31.8648V31.866V31.8672V31.8684V31.8697V31.8709V31.8721V31.8733V31.8745V31.8758V31.877V31.8782V31.8794V31.8806V31.8819V31.8831V31.8843V31.8855V31.8867V31.8879V31.8891V31.8904V31.8916V31.8928V31.894V31.8952V31.8964V31.8976V31.8988V31.9V31.9012V31.9025V31.9037V31.9049V31.9061V31.9073V31.9085V31.9097V31.9109V31.9121V31.9133V31.9145V31.9157V31.9169V31.9181V31.9193V31.9205V31.9217V31.9229V31.9241V31.9253V31.9265V31.9277V31.9289V31.9301V31.9312V31.9324V31.9336V31.9348V31.936V31.9372V31.9384V31.9396V31.9408V31.942V31.9432V31.9443V31.9455V31.9467V31.9479V31.9491V31.9503V31.9514V31.9526V31.9538V31.955V31.9562V31.9574V31.9585V31.9597V31.9609V31.9621V31.9633V31.9644V31.9656V31.9668V31.968V31.9691V31.9703V31.9715V31.9727V31.9738V31.975C374.378 32.0296 374.376 32.0879 374.371 32.15H354.983C355.643 29.914 356.766 28.0564 358.347 26.5635Z" stroke="#D9D9D9"/>
<path d="M338.834 55.5H339.334V55V20.5V20H338.834H333.584H333.084V20.5V55V55.5H333.584H338.834ZM333.145 4.85803L333.139 4.86429L333.133 4.87075C332.359 5.75565 331.959 6.77084 331.959 7.9C331.959 9.07334 332.355 10.0962 333.144 10.9412L333.156 10.9538L333.168 10.9655C334.013 11.7542 335.036 12.15 336.209 12.15C337.339 12.15 338.354 11.7506 339.239 10.9763L339.245 10.9706L339.251 10.9648C340.147 10.125 340.609 9.09496 340.609 7.9C340.609 6.74954 340.143 5.72679 339.263 4.84644C338.383 3.9661 337.36 3.5 336.209 3.5C335.014 3.5 333.984 3.96224 333.145 4.85803Z" stroke="#D9D9D9"/>
<path d="M325.133 26.4858L325.668 26.7869L325.854 26.2016L327.429 21.2516L327.516 20.9785L327.324 20.7655C326.785 20.1667 325.935 19.7333 324.851 19.4222C323.761 19.0602 322.711 18.875 321.703 18.875C320.294 18.875 319.022 19.1355 317.897 19.6693C316.795 20.1426 315.799 20.799 314.91 21.6359L314.905 21.6411L314.899 21.6464C314.066 22.48 313.339 23.441 312.719 24.5269L312.714 24.5349L312.71 24.543C312.398 25.1375 312.118 25.7475 311.869 26.3729L311.401 20.4605L311.365 20H310.903H306.778H306.278V20.5V55V55.5H306.778H312.028H312.528V55V34.8802C312.819 33.5835 313.229 32.3349 313.757 31.1339C314.342 29.9155 314.997 28.8502 315.72 27.9348C316.439 27.0245 317.221 26.3166 318.063 25.8016C318.889 25.2969 319.75 25.05 320.653 25.05C321.335 25.05 322.051 25.1863 322.802 25.4682L322.815 25.4731L322.829 25.4772C323.592 25.7159 324.36 26.0513 325.133 26.4858Z" stroke="#D9D9D9"/>
<path d="M271.833 37.375V37.125H296.608H296.885L297.032 36.89C297.341 36.3952 297.526 35.6815 297.629 34.8084L297.63 34.8052C297.731 33.8881 297.783 32.9946 297.783 32.125C297.783 27.9727 296.549 24.7002 294.023 22.3833C291.502 20.0218 287.965 18.875 283.483 18.875C280.575 18.875 277.955 19.3852 275.632 20.417C273.369 21.3944 271.459 22.7615 269.908 24.5192C268.363 26.2695 267.182 28.3007 266.362 30.6075L266.361 30.6075L266.359 30.6137C265.591 32.8684 265.208 35.2481 265.208 37.75C265.208 40.2031 265.591 42.5577 266.359 44.8113C267.129 47.0686 268.26 49.0745 269.752 50.8245L269.752 50.8245L269.757 50.8301C271.256 52.5362 273.114 53.9015 275.322 54.9284L275.322 54.9284L275.331 54.9323C277.555 55.9153 280.101 56.4 282.958 56.4C284.487 56.4 285.945 56.2474 287.331 55.9404C288.749 55.6867 290.046 55.3562 291.222 54.9472C292.386 54.5423 293.453 54.1106 294.422 53.6519L294.431 53.6474L294.44 53.6425C295.397 53.1392 296.207 52.6835 296.87 52.2758L297.169 52.0914L297.097 51.747L296.197 47.472L296.039 46.7236L295.417 47.1681C294.735 47.6553 293.951 48.1454 293.065 48.6379C292.184 49.1273 291.227 49.5936 290.195 50.0364C289.169 50.4269 288.093 50.7694 286.966 51.0636C285.855 51.3044 284.719 51.425 283.558 51.425C281.523 51.425 279.78 51.0379 278.315 50.2822C276.881 49.5169 275.689 48.4912 274.734 47.2024C273.773 45.9045 273.048 44.4097 272.563 42.7126C272.077 41.0092 271.833 39.2306 271.833 37.375ZM275.876 26.5635L275.876 26.5632C277.608 24.9247 280.046 24.075 283.258 24.075C284.408 24.075 285.507 24.2427 286.556 24.5765L286.566 24.5796L286.576 24.5824C287.618 24.8665 288.534 25.314 289.329 25.9222C290.116 26.5239 290.743 27.2885 291.21 28.2236L291.21 28.2237L291.215 28.2329C291.672 29.1001 291.908 30.1178 291.908 31.3V31.3015V31.3029V31.3044V31.3059V31.3073V31.3088V31.3102V31.3117V31.3132V31.3146V31.3161V31.3175V31.319V31.3205V31.3219V31.3234V31.3248V31.3263V31.3277V31.3292V31.3306V31.3321V31.3335V31.335V31.3364V31.3379V31.3393V31.3408V31.3422V31.3437V31.3451V31.3466V31.348V31.3495V31.3509V31.3524V31.3538V31.3553V31.3567V31.3581V31.3596V31.361V31.3625V31.3639V31.3653V31.3668V31.3682V31.3697V31.3711V31.3725V31.374V31.3754V31.3768V31.3783V31.3797V31.3811V31.3826V31.384V31.3854V31.3869V31.3883V31.3897V31.3912V31.3926V31.394V31.3954V31.3969V31.3983V31.3997V31.4011V31.4026V31.404V31.4054V31.4068V31.4083V31.4097V31.4111V31.4125V31.4139V31.4154V31.4168V31.4182V31.4196V31.421V31.4224V31.4239V31.4253V31.4267V31.4281V31.4295V31.4309V31.4323V31.4338V31.4352V31.4366V31.438V31.4394V31.4408V31.4422V31.4436V31.445V31.4464V31.4478V31.4493V31.4507V31.4521V31.4535V31.4549V31.4563V31.4577V31.4591V31.4605V31.4619V31.4633V31.4647V31.4661V31.4675V31.4689V31.4703V31.4717V31.4731V31.4745V31.4758V31.4772V31.4786V31.48V31.4814V31.4828V31.4842V31.4856V31.487V31.4884V31.4898V31.4912V31.4925V31.4939V31.4953V31.4967V31.4981V31.4995V31.5009V31.5022V31.5036V31.505V31.5064V31.5078V31.5092V31.5105V31.5119V31.5133V31.5147V31.516V31.5174V31.5188V31.5202V31.5216V31.5229V31.5243V31.5257V31.5271V31.5284V31.5298V31.5312V31.5325V31.5339V31.5353V31.5367V31.538V31.5394V31.5408V31.5421V31.5435V31.5449V31.5462V31.5476V31.549V31.5503V31.5517V31.553V31.5544V31.5558V31.5571V31.5585V31.5598V31.5612V31.5626V31.5639V31.5653V31.5666V31.568V31.5693V31.5707V31.5721V31.5734V31.5748V31.5761V31.5775V31.5788V31.5802V31.5815V31.5829V31.5842V31.5856V31.5869V31.5883V31.5896V31.591V31.5923V31.5937V31.595V31.5963V31.5977V31.599V31.6004V31.6017V31.6031V31.6044V31.6057V31.6071V31.6084V31.6098V31.6111V31.6124V31.6138V31.6151V31.6164V31.6178V31.6191V31.6204V31.6218V31.6231V31.6244V31.6258V31.6271V31.6284V31.6298V31.6311V31.6324V31.6338V31.6351V31.6364V31.6377V31.6391V31.6404V31.6417V31.643V31.6444V31.6457V31.647V31.6483V31.6497V31.651V31.6523V31.6536V31.6549V31.6563V31.6576V31.6589V31.6602V31.6615V31.6628V31.6642V31.6655V31.6668V31.6681V31.6694V31.6707V31.672V31.6733V31.6747V31.676V31.6773V31.6786V31.6799V31.6812V31.6825V31.6838V31.6851V31.6864V31.6877V31.689V31.6903V31.6916V31.6929V31.6942V31.6955V31.6968V31.6981V31.6994V31.7007V31.702V31.7033V31.7046V31.7059V31.7072V31.7085V31.7098V31.7111V31.7124V31.7137V31.715V31.7163V31.7176V31.7189V31.7202V31.7215V31.7227V31.724V31.7253V31.7266V31.7279V31.7292V31.7305V31.7318V31.733V31.7343V31.7356V31.7369V31.7382V31.7395V31.7407V31.742V31.7433V31.7446V31.7459V31.7471V31.7484V31.7497V31.751V31.7522V31.7535V31.7548V31.7561V31.7573V31.7586V31.7599V31.7612V31.7624V31.7637V31.765V31.7662V31.7675V31.7688V31.7701V31.7713V31.7726V31.7739V31.7751V31.7764V31.7776V31.7789V31.7802V31.7814V31.7827V31.784V31.7852V31.7865V31.7877V31.789V31.7903V31.7915V31.7928V31.794V31.7953V31.7966V31.7978V31.7991V31.8003V31.8016V31.8028V31.8041V31.8053V31.8066V31.8078V31.8091V31.8103V31.8116V31.8128V31.8141V31.8153V31.8166V31.8178V31.8191V31.8203V31.8216V31.8228V31.824V31.8253V31.8265V31.8278V31.829V31.8303V31.8315V31.8327V31.834V31.8352V31.8365V31.8377V31.8389V31.8402V31.8414V31.8426V31.8439V31.8451V31.8463V31.8476V31.8488V31.85V31.8513V31.8525V31.8537V31.855V31.8562V31.8574V31.8586V31.8599V31.8611V31.8623V31.8635V31.8648V31.866V31.8672V31.8684V31.8697V31.8709V31.8721V31.8733V31.8745V31.8758V31.877V31.8782V31.8794V31.8806V31.8819V31.8831V31.8843V31.8855V31.8867V31.8879V31.8891V31.8904V31.8916V31.8928V31.894V31.8952V31.8964V31.8976V31.8988V31.9V31.9012V31.9025V31.9037V31.9049V31.9061V31.9073V31.9085V31.9097V31.9109V31.9121V31.9133V31.9145V31.9157V31.9169V31.9181V31.9193V31.9205V31.9217V31.9229V31.9241V31.9253V31.9265V31.9277V31.9289V31.9301V31.9312V31.9324V31.9336V31.9348V31.936V31.9372V31.9384V31.9396V31.9408V31.942V31.9432V31.9443V31.9455V31.9467V31.9479V31.9491V31.9503V31.9514V31.9526V31.9538V31.955V31.9562V31.9574V31.9585V31.9597V31.9609V31.9621V31.9633V31.9644V31.9656V31.9668V31.968V31.9691V31.9703V31.9715V31.9727V31.9738V31.975C291.908 32.0296 291.905 32.0879 291.9 32.15H272.512C273.173 29.914 274.295 28.0564 275.876 26.5635Z" stroke="#D9D9D9"/>
<path d="M230.143 75H230.643V74.5V50.6633C231.449 51.9898 232.594 53.1483 234.063 54.1395C236.317 55.6594 239.172 56.4 242.593 56.4C245.306 56.4 247.71 55.8878 249.792 54.8472C251.853 53.8166 253.562 52.4464 254.91 50.7352C256.301 48.9832 257.329 46.9764 257.996 44.7202C258.712 42.4202 259.068 39.9961 259.068 37.45C259.068 35.0068 258.737 32.6849 258.074 30.4869C257.458 28.2342 256.508 26.2523 255.217 24.5481C253.921 22.8375 252.288 21.4654 250.326 20.4325C248.342 19.3883 246.034 18.875 243.418 18.875C241.771 18.875 240.219 19.1068 238.765 19.574L238.765 19.574L238.76 19.5757C237.376 20.0369 236.092 20.6273 234.908 21.3479C233.721 22.0703 232.661 22.923 231.73 23.9061L231.729 23.9067C231.095 24.5785 230.527 25.2527 230.025 25.9293L229.516 20.4537L229.474 20H229.018H224.893H224.393V20.5V74.5V75H224.893H230.143ZM249.912 47.2078L249.912 47.2077L249.905 47.2188C249.099 48.4041 248.083 49.3238 246.856 49.9848C245.641 50.6389 244.201 50.975 242.518 50.975C241.271 50.975 240.021 50.7834 238.768 50.3979C237.571 50.0146 236.418 49.4389 235.308 48.6676C234.249 47.8967 233.309 46.9812 232.489 45.9193C231.692 44.8886 231.076 43.6918 230.643 42.3235V31.5086C231.996 29.1754 233.645 27.4034 235.583 26.1737C237.606 24.9221 239.765 24.3 242.068 24.3C243.897 24.3 245.43 24.6846 246.688 25.4301L246.697 25.4356L246.707 25.4407C248.037 26.1535 249.127 27.1251 249.982 28.3596C250.843 29.603 251.469 31.0441 251.856 32.6895L251.856 32.6896L251.86 32.7029C252.298 34.3602 252.518 36.0672 252.518 37.825C252.518 39.6854 252.298 41.4158 251.861 43.0184C251.425 44.6171 250.774 46.0114 249.912 47.2078Z" stroke="#D9D9D9"/>
<path d="M199.577 41.757L210.965 55.3215L211.115 55.5H211.348H217.723H218.796L218.106 54.6785L203.452 37.2265L217.354 20.8233L218.052 20H216.973H210.598H210.363L210.213 20.181L199.722 32.8429L189.157 20.1797L189.007 20H188.773H182.398H181.329L182.014 20.8206L195.845 37.3737L181.265 54.6778L180.573 55.5H181.648H188.023H188.259L188.409 55.3179L199.577 41.757Z" stroke="#D9D9D9"/>
<path d="M177.188 55.5H177.688V55V49.75V49.25H177.188H154.663V31.875H170.663H171.163V31.375V26.125V25.625H170.663H154.663V11.25H175.688H176.188V10.75V5.5V5H175.688H148.538H148.038V5.5V55V55.5H148.538H177.188Z" stroke="#D9D9D9"/>
<path d="M653.394 229.339L653.394 229.339L653.396 229.337C653.997 228.846 655.022 228.55 656.58 228.55C658.096 228.55 659.472 228.776 660.711 229.221L660.711 229.221L660.714 229.222C662.021 229.679 662.956 230.171 663.556 230.681L664.129 231.168L664.356 230.451L665.306 227.451L665.422 227.087L665.101 226.88C664.008 226.175 662.685 225.656 661.143 225.313C659.613 224.939 658.175 224.75 656.83 224.75C654.216 224.75 652.062 225.387 650.417 226.71C648.791 228.011 647.98 229.775 647.98 231.95C647.98 232.597 648.07 233.242 648.248 233.884L648.248 233.884L648.25 233.891C648.436 234.522 648.748 235.125 649.18 235.7L649.184 235.706L649.189 235.712C649.633 236.268 650.231 236.77 650.966 237.225C651.724 237.694 652.677 238.061 653.81 238.335C653.811 238.336 653.811 238.336 653.812 238.336L658.608 239.535L658.608 239.535L658.617 239.537C659.445 239.728 660.033 239.989 660.421 240.293L660.43 240.3L660.439 240.307C660.862 240.609 661.157 240.926 661.348 241.252C661.549 241.597 661.655 241.926 661.681 242.242L661.681 242.242L661.682 242.245C661.714 242.6 661.73 242.918 661.73 243.2C661.73 243.922 661.387 244.665 660.587 245.436C659.845 246.119 658.72 246.5 657.13 246.5C656.033 246.5 654.772 246.264 653.341 245.777C651.943 245.3 650.669 244.537 649.518 243.481L648.916 242.93L648.698 243.717L647.798 246.967L647.704 247.306L647.992 247.509C648.941 248.177 650.187 248.779 651.712 249.321L651.712 249.321L651.722 249.324C653.278 249.843 654.965 250.1 656.78 250.1C658.225 250.1 659.547 249.894 660.74 249.474C661.922 249.091 662.93 248.546 663.754 247.831C664.605 247.12 665.251 246.28 665.683 245.31C666.148 244.342 666.38 243.303 666.38 242.2C666.38 241.619 666.29 241.012 666.116 240.381C665.963 239.667 665.626 238.988 665.124 238.343C664.609 237.681 663.891 237.094 662.989 236.573C662.09 236 660.915 235.568 659.487 235.262L655.94 234.462L655.94 234.462L655.932 234.461C655.17 234.302 654.575 234.101 654.133 233.868C653.706 233.593 653.365 233.325 653.103 233.066C652.883 232.787 652.74 232.504 652.662 232.218C652.572 231.889 652.53 231.583 652.53 231.3C652.53 230.432 652.825 229.799 653.394 229.339Z" stroke="#D9D9D9"/>
<path d="M631.356 228.85H634.706V244.4C634.706 245.019 634.74 245.653 634.809 246.302L634.81 246.317L634.813 246.332C634.922 246.991 635.143 247.601 635.477 248.157C635.833 248.75 636.36 249.211 637.032 249.547C637.731 249.897 638.653 250.05 639.756 250.05C640.895 250.05 641.943 249.912 642.895 249.63C643.841 249.36 644.619 249.085 645.219 248.802L645.596 248.625L645.489 248.222L644.789 245.572L644.604 244.872L644.015 245.293C643.586 245.6 643.09 245.864 642.525 246.084C641.992 246.291 641.372 246.4 640.656 246.4C640.076 246.4 639.728 246.258 639.52 246.057C639.454 245.979 639.371 245.819 639.307 245.52C639.242 245.217 639.206 244.813 639.206 244.3V228.85H644.106H644.606V228.35V226V225.5H644.106H639.206V219.05V218.55H638.706H636.056H635.607L635.559 218.996L634.851 225.554L631.293 226.004L630.856 226.059V226.5V228.35V228.85H631.356Z" stroke="#D9D9D9"/>
<path d="M628.44 230.136L628.975 230.437L629.161 229.852L630.211 226.552L630.298 226.279L630.106 226.066C629.718 225.633 629.117 225.333 628.383 225.122C627.644 224.877 626.927 224.75 626.235 224.75C625.276 224.75 624.404 224.927 623.629 225.294C622.877 225.618 622.198 226.066 621.592 226.636L621.587 226.641L621.581 226.646C621.014 227.213 620.521 227.866 620.101 228.602L620.096 228.61L620.092 228.618C619.987 228.819 619.887 229.022 619.792 229.228L619.533 225.961L619.497 225.5H619.035H616.285H615.785V226V249V249.5H616.285H619.785H620.285V249V235.605C620.476 234.759 620.745 233.943 621.089 233.159C621.475 232.357 621.905 231.659 622.377 231.06C622.846 230.466 623.353 230.008 623.896 229.677C624.422 229.355 624.965 229.2 625.535 229.2C625.967 229.2 626.424 229.286 626.909 229.468L626.922 229.473L626.936 229.477C627.433 229.633 627.934 229.851 628.44 230.136Z" stroke="#D9D9D9"/>
<path d="M607.634 246.429L607.634 246.429L607.639 246.423C608.617 245.27 609.333 243.943 609.785 242.448C610.267 240.931 610.507 239.33 610.507 237.65C610.507 235.971 610.268 234.371 609.786 232.855C609.334 231.295 608.604 229.919 607.593 228.732C606.608 227.503 605.347 226.542 603.819 225.847C602.271 225.109 600.445 224.75 598.357 224.75C596.337 224.75 594.548 225.092 593.005 225.793C591.475 226.454 590.196 227.381 589.177 228.576L589.176 228.577C588.197 229.73 587.466 231.073 586.981 232.598C586.498 234.117 586.257 235.718 586.257 237.4C586.257 239.082 586.498 240.683 586.981 242.202C587.467 243.73 588.216 245.089 589.227 246.274L589.227 246.275L589.232 246.28C590.25 247.438 591.526 248.362 593.051 249.055L593.054 249.057C594.632 249.758 596.47 250.1 598.557 250.1C600.576 250.1 602.347 249.775 603.858 249.108C605.383 248.449 606.646 247.558 607.634 246.429ZM601.734 245.753L601.734 245.753L601.728 245.756C600.846 246.212 599.779 246.45 598.507 246.45C597.173 246.45 596.039 246.196 595.09 245.707C594.158 245.21 593.384 244.544 592.763 243.707C592.168 242.86 591.709 241.883 591.39 240.769C591.102 239.647 590.957 238.474 590.957 237.25C590.957 236.058 591.102 234.935 591.39 233.882L591.39 233.882L591.391 233.878C591.676 232.8 592.116 231.878 592.706 231.103C593.292 230.331 594.034 229.711 594.937 229.244C595.817 228.789 596.901 228.55 598.207 228.55C599.544 228.55 600.66 228.805 601.572 229.291L601.572 229.291L601.578 229.294C602.546 229.794 603.336 230.461 603.956 231.298L603.956 231.298L603.961 231.305C604.583 232.113 605.038 233.067 605.323 234.175L605.323 234.175L605.327 234.187C605.647 235.307 605.807 236.478 605.807 237.7C605.807 238.892 605.663 240.031 605.375 241.12C605.091 242.159 604.636 243.083 604.011 243.895L604.009 243.897C603.425 244.666 602.67 245.285 601.734 245.753Z" stroke="#D9D9D9"/>
<path d="M569.752 229.339L569.752 229.339L569.754 229.337C570.354 228.846 571.38 228.55 572.937 228.55C574.454 228.55 575.829 228.776 577.068 229.221L577.068 229.221L577.072 229.222C578.378 229.679 579.313 230.171 579.913 230.681L580.487 231.168L580.714 230.451L581.664 227.451L581.779 227.087L581.458 226.88C580.366 226.175 579.042 225.656 577.501 225.313C575.971 224.939 574.532 224.75 573.187 224.75C570.573 224.75 568.419 225.387 566.774 226.71C565.148 228.011 564.337 229.775 564.337 231.95C564.337 232.597 564.427 233.242 564.605 233.884L564.605 233.884L564.607 233.891C564.793 234.522 565.106 235.125 565.537 235.7L565.542 235.706L565.547 235.712C565.991 236.268 566.589 236.77 567.324 237.225C568.082 237.694 569.035 238.061 570.168 238.335C570.168 238.336 570.169 238.336 570.169 238.336L574.966 239.535L574.966 239.535L574.975 239.537C575.802 239.728 576.391 239.989 576.778 240.293L576.787 240.3L576.796 240.307C577.219 240.609 577.515 240.926 577.705 241.252C577.907 241.597 578.013 241.926 578.039 242.242L578.039 242.242L578.039 242.245C578.071 242.6 578.087 242.918 578.087 243.2C578.087 243.922 577.744 244.665 576.944 245.436C576.202 246.119 575.077 246.5 573.487 246.5C572.39 246.5 571.129 246.264 569.698 245.777C568.3 245.3 567.027 244.537 565.875 243.481L565.273 242.93L565.055 243.717L564.155 246.967L564.061 247.306L564.349 247.509C565.299 248.177 566.544 248.779 568.07 249.321L568.07 249.321L568.079 249.324C569.636 249.843 571.323 250.1 573.137 250.1C574.582 250.1 575.904 249.894 577.097 249.474C578.279 249.091 579.288 248.546 580.111 247.831C580.963 247.12 581.609 246.28 582.041 245.31C582.506 244.342 582.737 243.303 582.737 242.2C582.737 241.619 582.647 241.012 582.473 240.381C582.32 239.667 581.983 238.988 581.482 238.343C580.967 237.681 580.248 237.094 579.347 236.573C578.448 235.999 577.273 235.568 575.844 235.262L572.297 234.462L572.297 234.462L572.289 234.461C571.527 234.302 570.932 234.101 570.49 233.868C570.064 233.593 569.723 233.325 569.46 233.066C569.241 232.787 569.097 232.504 569.019 232.218C568.93 231.889 568.887 231.583 568.887 231.3C568.887 230.432 569.183 229.799 569.752 229.339Z" stroke="#D9D9D9"/>
<path d="M543.538 240.763C543.218 239.643 543.057 238.472 543.057 237.25H559.407H559.684L559.831 237.015C560.057 236.654 560.184 236.148 560.254 235.558L560.254 235.555C560.323 234.938 560.357 234.336 560.357 233.75C560.357 230.948 559.523 228.717 557.797 227.133C556.077 225.522 553.672 224.75 550.657 224.75C548.699 224.75 546.929 225.094 545.356 225.792C543.827 226.453 542.533 227.378 541.482 228.569C540.438 229.753 539.639 231.126 539.086 232.682L539.086 232.682L539.084 232.689C538.565 234.21 538.307 235.815 538.307 237.5C538.307 239.153 538.565 240.741 539.084 242.261C539.603 243.785 540.367 245.141 541.377 246.324L541.377 246.325L541.381 246.33C542.397 247.486 543.655 248.41 545.146 249.103L545.146 249.103L545.155 249.107C546.663 249.774 548.384 250.1 550.307 250.1C551.337 250.1 552.32 249.997 553.255 249.79C554.206 249.62 555.079 249.398 555.871 249.122C556.652 248.851 557.369 248.561 558.021 248.252L558.031 248.247L558.04 248.242C558.679 247.906 559.223 247.6 559.669 247.326L559.969 247.141L559.896 246.797L559.296 243.947L559.139 243.199L558.516 243.643C558.068 243.964 557.551 244.287 556.964 244.613C556.383 244.936 555.752 245.244 555.069 245.536C554.393 245.794 553.684 246.019 552.941 246.214C552.213 246.371 551.469 246.45 550.707 246.45C549.372 246.45 548.238 246.196 547.289 245.707C546.355 245.209 545.58 244.541 544.959 243.702C544.331 242.855 543.856 241.876 543.538 240.763ZM545.7 230.164L545.701 230.163C546.816 229.108 548.396 228.55 550.507 228.55C551.258 228.55 551.973 228.659 552.655 228.876L552.665 228.88L552.675 228.882C553.351 229.067 553.941 229.356 554.453 229.747C554.957 230.132 555.359 230.622 555.66 231.224L555.66 231.224L555.665 231.233C555.954 231.783 556.107 232.434 556.107 233.2V233.201V233.202V233.203V233.204V233.205V233.206V233.207V233.208V233.209V233.21V233.211V233.212V233.213V233.214V233.215V233.216V233.217V233.218V233.218V233.219V233.22V233.221V233.222V233.223V233.224V233.225V233.226V233.227V233.228V233.229V233.23V233.231V233.232V233.233V233.234V233.235V233.236V233.237V233.238V233.239V233.24V233.241V233.242V233.243V233.244V233.245V233.245V233.246V233.247V233.248V233.249V233.25V233.251V233.252V233.253V233.254V233.255V233.256V233.257V233.258V233.259V233.26V233.261V233.262V233.263V233.264V233.265V233.266V233.266V233.267V233.268V233.269V233.27V233.271V233.272V233.273V233.274V233.275V233.276V233.277V233.278V233.279V233.28V233.281V233.282V233.283V233.284V233.284V233.285V233.286V233.287V233.288V233.289V233.29V233.291V233.292V233.293V233.294V233.295V233.296V233.297V233.298V233.299V233.3V233.3V233.301V233.302V233.303V233.304V233.305V233.306V233.307V233.308V233.309V233.31V233.311V233.312V233.313V233.314V233.314V233.315V233.316V233.317V233.318V233.319V233.32V233.321V233.322V233.323V233.324V233.325V233.326V233.327V233.327V233.328V233.329V233.33V233.331V233.332V233.333V233.334V233.335V233.336V233.337V233.338V233.339V233.339V233.34V233.341V233.342V233.343V233.344V233.345V233.346V233.347V233.348V233.349V233.35V233.35V233.351V233.352V233.353V233.354V233.355V233.356V233.357V233.358V233.359V233.36V233.361V233.361V233.362V233.363V233.364V233.365V233.366V233.367V233.368V233.369V233.37V233.371V233.371V233.372V233.373V233.374V233.375V233.376V233.377V233.378V233.379V233.38V233.38V233.381V233.382V233.383V233.384V233.385V233.386V233.387V233.388V233.389V233.389V233.39V233.391V233.392V233.393V233.394V233.395V233.396V233.397V233.398V233.398V233.399V233.4V233.401V233.402V233.403V233.404V233.405V233.406V233.407V233.407V233.408V233.409V233.41V233.411V233.412V233.413V233.414V233.415V233.415V233.416V233.417V233.418V233.419V233.42V233.421V233.422V233.423V233.423V233.424V233.425V233.426V233.427V233.428V233.429V233.43V233.43V233.431V233.432V233.433V233.434V233.435V233.436V233.437V233.438V233.438V233.439V233.44V233.441V233.442V233.443V233.444V233.445V233.445V233.446V233.447V233.448V233.449V233.45V233.451V233.452V233.452V233.453V233.454V233.455V233.456V233.457V233.458V233.458V233.459V233.46V233.461V233.462V233.463V233.464V233.465V233.465V233.466V233.467V233.468V233.469V233.47V233.471V233.471V233.472V233.473V233.474V233.475V233.476V233.477V233.478V233.478V233.479V233.48V233.481V233.482V233.483V233.484V233.484V233.485V233.486V233.487V233.488V233.489V233.49V233.49V233.491V233.492V233.493V233.494V233.495V233.496V233.496V233.497V233.498V233.499V233.5V233.501V233.501V233.502V233.503V233.504V233.505V233.506V233.507V233.507V233.508V233.509V233.51V233.511V233.512V233.513V233.513V233.514V233.515V233.516V233.517V233.518V233.518V233.519V233.52V233.521V233.522V233.523V233.523V233.524V233.525V233.526V233.527V233.528V233.529V233.529V233.53V233.531V233.532V233.533V233.534V233.534V233.535V233.536V233.537V233.538V233.539V233.539V233.54V233.541V233.542V233.543V233.544V233.544V233.545V233.546V233.547V233.548V233.549V233.549V233.55V233.551V233.552V233.553V233.554V233.554V233.555V233.556V233.557V233.558V233.558V233.559V233.56V233.561V233.562V233.563V233.563V233.564V233.565V233.566V233.567V233.568V233.568V233.569V233.57V233.571V233.572V233.572V233.573V233.574V233.575V233.576V233.577V233.577V233.578V233.579V233.58V233.581V233.581V233.582V233.583V233.584V233.585V233.585V233.586V233.587V233.588V233.589V233.59V233.59V233.591V233.592V233.593V233.594V233.594V233.595V233.596V233.597V233.598V233.598V233.599V233.6H543.569C544.008 232.231 544.72 231.089 545.7 230.164Z" stroke="#D9D9D9"/>
<path d="M512.423 215.501L511.952 215.528V216V249V249.5H512.452H516.202H516.702V249V235.289C517.709 235.359 518.8 235.395 519.975 235.4L532.176 249.329L532.325 249.5H532.552H537.202H538.299L537.579 248.672L525.44 234.709C527.65 233.994 529.353 232.846 530.508 231.242C531.771 229.487 532.402 227.484 532.402 225.25C532.402 223.654 532.09 222.226 531.45 220.979C530.85 219.709 529.983 218.649 528.855 217.802C527.764 216.958 526.455 216.333 524.939 215.919C523.42 215.471 521.74 215.25 519.902 215.25C518.728 215.25 517.471 215.283 516.133 215.35C514.831 215.384 513.594 215.434 512.423 215.501ZM518.102 219.6H518.114L518.126 219.599C518.818 219.566 519.51 219.55 520.202 219.55C522.969 219.55 524.749 220.083 525.704 221.009L525.704 221.009L525.709 221.014C526.73 221.975 527.252 223.237 527.252 224.85C527.252 226.951 526.65 228.485 525.514 229.532C524.408 230.548 522.702 231.1 520.302 231.1H520.297H520.293H520.288H520.284H520.28H520.275H520.271H520.266H520.262H520.257H520.253H520.248H520.244H520.239H520.235H520.23H520.226H520.221H520.217H520.212H520.208H520.203H520.199H520.194H520.19H520.185H520.181H520.176H520.172H520.168H520.163H520.159H520.154H520.15H520.145H520.141H520.136H520.132H520.127H520.123H520.118H520.114H520.11H520.105H520.101H520.096H520.092H520.087H520.083H520.078H520.074H520.069H520.065H520.061H520.056H520.052H520.047H520.043H520.038H520.034H520.029H520.025H520.02H520.016H520.012H520.007H520.003H519.998H519.994H519.989H519.985H519.981H519.976H519.972H519.967H519.963H519.958H519.954H519.949H519.945H519.941H519.936H519.932H519.927H519.923H519.918H519.914H519.91H519.905H519.901H519.896H519.892H519.887H519.883H519.879H519.874H519.87H519.865H519.861H519.857H519.852H519.848H519.843H519.839H519.834H519.83H519.826H519.821H519.817H519.812H519.808H519.804H519.799H519.795H519.79H519.786H519.782H519.777H519.773H519.768H519.764H519.76H519.755H519.751H519.746H519.742H519.738H519.733H519.729H519.724H519.72H519.716H519.711H519.707H519.702H519.698H519.694H519.689H519.685H519.681H519.676H519.672H519.667H519.663H519.659H519.654H519.65H519.645H519.641H519.637H519.632H519.628H519.624H519.619H519.615H519.61H519.606H519.602H519.597H519.593H519.589H519.584H519.58H519.576H519.571H519.567H519.562H519.558H519.554H519.549H519.545H519.541H519.536H519.532H519.528H519.523H519.519H519.514H519.51H519.506H519.501H519.497H519.493H519.488H519.484H519.48H519.475H519.471H519.467H519.462H519.458H519.454H519.449H519.445H519.441H519.436H519.432H519.427H519.423H519.419H519.414H519.41H519.406H519.401H519.397H519.393H519.388H519.384H519.38H519.375H519.371H519.367H519.362H519.358H519.354H519.349H519.345H519.341H519.336H519.332H519.328H519.324H519.319H519.315H519.311H519.306H519.302H519.298H519.293H519.289H519.285H519.28H519.276H519.272H519.267H519.263H519.259H519.254H519.25H519.246H519.242H519.237H519.233H519.229H519.224H519.22H519.216H519.211H519.207H519.203H519.198H519.194H519.19H519.186H519.181H519.177H519.173H519.168H519.164H519.16H519.155H519.151H519.147H519.143H519.138H519.134H519.13H519.125H519.121H519.117H519.113H519.108H519.104H519.1H519.095H519.091H519.087H519.083H519.078H519.074H519.07H519.066H519.061H519.057H519.053H519.048H519.044H519.04H519.036H519.031H519.027H519.023H519.019H519.014H519.01H519.006H519.001H518.997H518.993H518.989H518.984H518.98H518.976H518.972H518.967H518.963H518.959H518.955H518.95H518.946H518.942H518.938H518.933H518.929H518.925H518.921H518.916H518.912H518.908H518.904H518.899H518.895H518.891H518.887H518.882H518.878H518.874H518.87H518.865H518.861H518.857H518.853H518.848H518.844H518.84H518.836H518.831H518.827H518.823H518.819H518.814H518.81H518.806H518.802H518.798H518.793H518.789H518.785H518.781H518.776H518.772H518.768H518.764H518.76H518.755H518.751H518.747H518.743H518.738H518.734H518.73H518.726H518.722H518.717H518.713H518.709H518.705H518.701H518.696H518.692H518.688H518.684H518.679H518.675H518.671H518.667H518.663H518.658H518.654H518.65H518.646H518.642H518.637H518.633H518.629H518.625H518.621H518.616H518.612H518.608H518.604H518.6H518.595H518.591H518.587H518.583H518.579H518.575H518.57H518.566H518.562H518.558H518.554H518.549H518.545H518.541H518.537H518.533H518.528H518.524H518.52H518.516H518.512H518.508H518.503H518.499H518.495H518.491H518.487H518.483H518.478H518.474H518.47H518.466H518.462H518.458H518.453H518.449H518.445H518.441H518.437H518.433H518.428H518.424H518.42H518.416H518.412H518.408H518.403H518.399H518.395H518.391H518.387H518.383H518.378H518.374H518.37H518.366H518.362H518.358H518.354H518.349H518.345H518.341H518.337H518.333H518.329H518.325H518.32H518.316H518.312H518.308H518.304H518.3H518.296H518.291H518.287H518.283H518.279H518.275H518.271H518.267H518.263H518.258H518.254H518.25H518.246H518.242H518.238H518.234H518.229H518.225H518.221H518.217H518.213H518.209H518.205H518.201H518.197H518.192H518.188H518.184H518.18H518.176H518.172H518.168H518.164H518.159H518.155H518.151H518.147H518.143H518.139H518.135H518.131H518.127H518.122H518.118H518.114H518.11H518.106H518.102C517.616 231.1 517.149 231.082 516.702 231.046V219.627C517.15 219.609 517.617 219.6 518.102 219.6Z" stroke="#D9D9D9"/>
<path d="M487.55 249V249.5H488.05H491.55H492.05V249V233.35C492.05 231.808 491.828 230.473 491.364 229.363C490.941 228.272 490.351 227.372 489.585 226.679C488.826 225.993 487.926 225.507 486.893 225.221C485.909 224.906 484.86 224.75 483.75 224.75C481.443 224.75 479.475 225.267 477.876 226.332C476.808 227.021 475.979 227.827 475.408 228.753L475.148 225.954L475.106 225.5H474.65H471.9H471.4V226V249V249.5H471.9H475.4H475.9V249V234.327C476.184 233.436 476.57 232.661 477.054 231.994L477.054 231.994L477.06 231.986C477.564 231.262 478.141 230.671 478.791 230.207L478.797 230.202L478.803 230.198C479.46 229.697 480.161 229.324 480.905 229.075C481.691 228.824 482.472 228.7 483.25 228.7C484.538 228.7 485.558 229.094 486.353 229.86C487.11 230.589 487.55 231.857 487.55 233.8V249Z" stroke="#D9D9D9"/>
<path d="M464.621 249.5V249V226V225.5H464.121H460.621H460.121V226V249V249.5H460.621H464.121H464.621ZM460.206 215.458L460.2 215.464L460.194 215.471C459.653 216.089 459.371 216.804 459.371 217.6C459.371 218.423 459.65 219.146 460.205 219.741L460.217 219.754L460.23 219.766C460.825 220.321 461.547 220.6 462.371 220.6C463.167 220.6 463.882 220.317 464.5 219.776L464.506 219.771L464.513 219.765C465.142 219.175 465.471 218.445 465.471 217.6C465.471 216.783 465.138 216.06 464.524 215.446L464.171 215.8L464.524 215.446C463.911 214.833 463.188 214.5 462.371 214.5C461.526 214.5 460.796 214.829 460.206 215.458Z" stroke="#D9D9D9"/>
<path d="M438.444 248.623L438.444 248.623L438.451 248.627C440.076 249.616 442.003 250.1 444.211 250.1C445.977 250.1 447.543 249.753 448.894 249.042C450.223 248.343 451.33 247.413 452.209 246.252C453.083 245.099 453.726 243.776 454.141 242.288C454.588 240.774 454.811 239.194 454.811 237.55C454.811 235.87 454.571 234.255 454.09 232.706C453.64 231.153 452.946 229.794 452.003 228.64C451.089 227.446 449.93 226.501 448.535 225.803C447.12 225.096 445.491 224.75 443.661 224.75C441.419 224.75 439.501 225.251 437.936 226.283C437.087 226.842 436.393 227.482 435.861 228.205V212V211.5H435.361H431.861H431.361V212V249V249.5H431.861H434.611H435.065L435.109 249.049L435.405 246.011C436.195 246.976 437.211 247.846 438.444 248.623ZM449.58 233.987L449.58 233.987L449.584 234C449.933 235.112 450.111 236.344 450.111 237.7C450.111 238.73 449.998 239.761 449.772 240.793C449.551 241.807 449.188 242.72 448.687 243.534C448.196 244.301 447.552 244.93 446.749 245.424C445.978 245.898 445.008 246.15 443.811 246.15C442.307 246.15 440.825 245.744 439.361 244.917C437.942 244.083 436.776 242.934 435.861 241.459V234.328C436.436 232.549 437.373 231.182 438.662 230.199C440.009 229.197 441.504 228.7 443.161 228.7C444.223 228.7 445.179 228.918 446.037 229.347C446.902 229.78 447.626 230.38 448.213 231.153C448.803 231.929 449.261 232.871 449.58 233.987Z" stroke="#D9D9D9"/>
<path d="M421.061 249.049L421.105 249.5H421.559H424.309H424.809V249V233.35C424.809 231.662 424.516 230.211 423.903 229.021C423.299 227.849 422.474 226.929 421.425 226.277C420.533 225.707 419.507 225.32 418.355 225.109C417.22 224.869 416.021 224.75 414.759 224.75C411.588 224.75 408.831 225.415 406.507 226.768L406.177 226.96L406.275 227.329L407.075 230.329L407.247 230.97L407.816 230.629C408.787 230.046 409.789 229.578 410.821 229.223C411.825 228.878 413.001 228.7 414.359 228.7C415.406 228.7 416.207 228.782 416.781 228.934L416.796 228.937L416.811 228.94C417.413 229.061 417.968 229.285 418.479 229.615C419.08 230.037 419.52 230.54 419.811 231.124L419.816 231.132L419.82 231.141C420.128 231.7 420.309 232.568 420.309 233.8V233.9H418.559C417.369 233.9 415.984 233.985 414.406 234.153L414.405 234.153C412.826 234.324 411.315 234.702 409.871 235.287C408.398 235.883 407.148 236.78 406.128 237.976C405.065 239.222 404.559 240.865 404.559 242.85C404.559 244.885 405.14 246.621 406.327 248.023L406.327 248.023L406.331 248.028C407.554 249.436 409.362 250.1 411.659 250.1C412.637 250.1 413.613 249.961 414.586 249.684C415.585 249.442 416.505 249.095 417.343 248.642C418.206 248.193 418.986 247.673 419.682 247.081C420.087 246.737 420.448 246.379 420.764 246.005L421.061 249.049ZM410.17 239.945L410.17 239.945L410.178 239.937C410.816 239.238 411.644 238.697 412.677 238.321C413.763 237.938 414.968 237.696 416.295 237.599C417.633 237.501 418.971 237.451 420.309 237.45V241.462C419.393 242.968 418.228 244.115 416.813 244.915C415.333 245.751 413.968 246.15 412.709 246.15C411.611 246.15 410.776 245.849 410.154 245.288C409.579 244.709 409.259 243.855 409.259 242.65C409.259 241.441 409.582 240.561 410.17 239.945Z" stroke="#D9D9D9"/>
<path d="M399.054 221.918L399.619 222.289L399.809 221.64L400.859 218.04L400.974 217.644L400.607 217.455C399.258 216.764 397.665 216.234 395.833 215.861C393.999 215.454 392.164 215.25 390.329 215.25C387.541 215.25 385.07 215.709 382.929 216.642L382.929 216.642L382.926 216.643C380.832 217.57 379.056 218.844 377.606 220.467L377.605 220.467C376.191 222.054 375.125 223.913 374.405 226.04C373.686 228.162 373.329 230.433 373.329 232.85C373.329 235.164 373.652 237.364 374.301 239.449L374.302 239.451C374.954 241.511 375.952 243.337 377.297 244.923L377.297 244.923L377.301 244.928C378.686 246.52 380.413 247.779 382.473 248.706C384.552 249.641 386.991 250.1 389.779 250.1C392.187 250.1 394.356 249.795 396.282 249.176L396.287 249.174C398.212 248.533 399.864 247.802 401.236 246.979L401.569 246.779L401.458 246.407L400.458 243.057L400.244 242.34L399.663 242.812C398.656 243.63 397.297 244.339 395.568 244.927C393.859 245.507 391.981 245.8 389.929 245.8C386.062 245.8 383.237 244.667 381.358 242.475C379.466 240.267 378.479 236.954 378.479 232.45C378.479 230.484 378.675 228.709 379.063 227.122C379.481 225.517 380.135 224.168 381.016 223.066C381.926 221.969 383.106 221.117 384.569 220.512L384.569 220.512L384.578 220.509C386.031 219.877 387.842 219.55 390.029 219.55C391.991 219.55 393.724 219.779 395.236 220.229C396.768 220.686 398.038 221.251 399.054 221.918Z" stroke="#D9D9D9"/>
</svg>
