<svg width="77" height="35" viewBox="0 0 77 35" fill="none" xmlns="http://www.w3.org/2000/svg">
<path d="M5.65161 28.75L27.5 3.75965L49.3484 28.75H5.65161Z" stroke="white"/>
<path d="M27.5 3L38 16.0345L34.7692 14.5862L33.1538 15.5517L31.5385 11.2069L29.9231 16.0345L28.3077 14.5862L26.6923 17L25.0769 12.6552L22.6538 15.5517L21.0385 13.1379L17 16.0345L27.5 3Z" fill="white"/>
<path d="M28.6516 28.75L50.5 3.75965L72.3484 28.75H28.6516Z" stroke="white"/>
<path d="M50.5 3L61 16.0345L57.7692 14.5862L56.1538 15.5517L54.5385 11.2069L52.9231 16.0345L51.3077 14.5862L49.6923 17L48.0769 12.6552L45.6538 15.5517L44.0385 13.1379L40 16.0345L50.5 3Z" fill="white"/>
</svg>
